<svg width="24" height="24" viewBox="0 0 24 24" fill="none" xmlns="http://www.w3.org/2000/svg">
<g clip-path="url(#clip0_2137_112)">
<path d="M21.4998 4.00002H18.8332V6.00002C18.8332 6.19262 18.7952 6.38334 18.7215 6.56128C18.6478 6.73923 18.5398 6.90091 18.4036 7.03711C18.2674 7.1733 18.1057 7.28133 17.9278 7.35504C17.7498 7.42875 17.5591 7.46668 17.3665 7.46668C17.1739 7.46668 16.9832 7.42875 16.8052 7.35504C16.6273 7.28133 16.4656 7.1733 16.3294 7.03711C16.1932 6.90091 16.0852 6.73923 16.0115 6.56128C15.9378 6.38334 15.8998 6.19262 15.8998 6.00002V4.00002H8.13318V6.00002C8.13318 6.389 7.97866 6.76205 7.7036 7.03711C7.42855 7.31216 7.0555 7.46668 6.66651 7.46668C6.27753 7.46668 5.90448 7.31216 5.62942 7.03711C5.35437 6.76205 5.19985 6.389 5.19985 6.00002V4.00002H2.53318C2.37453 3.99821 2.21713 4.02824 2.07028 4.08832C1.92344 4.14841 1.79013 4.23733 1.67825 4.34983C1.56638 4.46233 1.47819 4.59613 1.41892 4.7433C1.35965 4.89048 1.33049 5.04804 1.33318 5.20668V20.1267C1.33053 20.2825 1.35861 20.4374 1.41581 20.5823C1.47301 20.7273 1.55821 20.8596 1.66655 20.9717C1.77489 21.0837 1.90425 21.1734 2.04722 21.2354C2.1902 21.2975 2.344 21.3307 2.49985 21.3333H21.4998C21.6557 21.3307 21.8095 21.2975 21.9525 21.2354C22.0954 21.1734 22.2248 21.0837 22.3331 20.9717C22.4415 20.8596 22.5267 20.7273 22.5839 20.5823C22.6411 20.4374 22.6692 20.2825 22.6665 20.1267V5.20668C22.6692 5.05084 22.6411 4.896 22.5839 4.75102C22.5267 4.60603 22.4415 4.47373 22.3331 4.36168C22.2248 4.24962 22.0954 4.16001 21.9525 4.09795C21.8095 4.0359 21.6557 4.00262 21.4998 4.00002ZM6.66651 17.3333H5.33318V16H6.66651V17.3333ZM6.66651 14H5.33318V12.6667H6.66651V14ZM6.66651 10.6667H5.33318V9.33335H6.66651V10.6667ZM10.6665 17.3333H9.33318V16H10.6665V17.3333ZM10.6665 14H9.33318V12.6667H10.6665V14ZM10.6665 10.6667H9.33318V9.33335H10.6665V10.6667ZM14.6665 17.3333H13.3332V16H14.6665V17.3333ZM14.6665 14H13.3332V12.6667H14.6665V14ZM14.6665 10.6667H13.3332V9.33335H14.6665V10.6667ZM18.6665 17.3333H17.3332V16H18.6665V17.3333ZM18.6665 14H17.3332V12.6667H18.6665V14ZM18.6665 10.6667H17.3332V9.33335H18.6665V10.6667Z" fill="#0052A8"/>
<path d="M6.66667 6.66665C6.84348 6.66665 7.01305 6.59641 7.13807 6.47138C7.2631 6.34636 7.33333 6.17679 7.33333 5.99998V1.99998C7.33333 1.82317 7.2631 1.6536 7.13807 1.52858C7.01305 1.40355 6.84348 1.33331 6.66667 1.33331C6.48986 1.33331 6.32029 1.40355 6.19526 1.52858C6.07024 1.6536 6 1.82317 6 1.99998V5.99998C6 6.17679 6.07024 6.34636 6.19526 6.47138C6.32029 6.59641 6.48986 6.66665 6.66667 6.66665Z" fill="#0052A8"/>
<path d="M17.3332 6.66665C17.51 6.66665 17.6796 6.59641 17.8046 6.47138C17.9296 6.34636 17.9998 6.17679 17.9998 5.99998V1.99998C17.9998 1.82317 17.9296 1.6536 17.8046 1.52858C17.6796 1.40355 17.51 1.33331 17.3332 1.33331C17.1564 1.33331 16.9868 1.40355 16.8618 1.52858C16.7367 1.6536 16.6665 1.82317 16.6665 1.99998V5.99998C16.6665 6.17679 16.7367 6.34636 16.8618 6.47138C16.9868 6.59641 17.1564 6.66665 17.3332 6.66665Z" fill="#0052A8"/>
</g>
<defs>
<clipPath id="clip0_2137_112">
<rect width="24" height="24" fill="white"/>
</clipPath>
</defs>
</svg>
