<svg width="172" height="30" viewBox="0 0 172 30" fill="none" xmlns="http://www.w3.org/2000/svg">
<path d="M24.8385 2.86249H1.92497C1.15549 2.86249 0.5 3.50795 0.5 4.29373V6.84752C0.5 7.6333 1.15549 8.27877 1.92497 8.27877H24.8385C25.6365 8.27877 26.2635 7.6333 26.292 6.84752V4.32179C26.292 3.50795 25.6365 2.86249 24.8385 2.86249ZM24.8385 17.0346H1.92497C1.55448 17.0346 1.18399 17.1749 0.927491 17.4556C0.642497 17.7362 0.5 18.073 0.5 18.4659V21.0196C0.5 21.8054 1.15549 22.4509 1.92497 22.4509H24.8385C25.6365 22.4509 26.2635 21.8335 26.292 21.0196V18.4659C26.2635 17.652 25.6365 17.0346 24.8385 17.0346ZM14.8352 24.1066H1.92497C1.55448 24.1066 1.18399 24.247 0.927491 24.5276C0.670996 24.8082 0.5 25.145 0.5 25.5379V28.0917C0.5 28.8775 1.15549 29.5229 1.92497 29.5229H14.8067C15.6047 29.5229 16.2317 28.8775 16.2317 28.1197V25.566C16.2602 24.724 15.6332 24.0786 14.8352 24.1066ZM26.292 9.93452H1.92497C1.55448 9.93452 1.18399 10.0748 0.927491 10.3555C0.670996 10.6361 0.5 10.9729 0.5 11.3658V13.9196C0.5 14.7053 1.15549 15.3508 1.92497 15.3508H26.2635C27.0614 15.3508 27.6884 14.7053 27.6884 13.9196V11.3658C27.7169 10.58 27.0614 9.96258 26.292 9.93452Z" fill="#00C3F7"/>
<path d="M52.939 8.58747C52.2265 7.85781 51.4 7.29654 50.4595 6.90365C49.5191 6.51076 48.5216 6.31431 47.4956 6.31431C46.4981 6.28625 45.5291 6.51076 44.6172 6.93171C44.0187 7.21235 43.4772 7.60524 43.0212 8.08232V7.6333C43.0212 7.40879 42.9357 7.18429 42.7932 7.0159C42.6507 6.84752 42.4227 6.73527 42.1662 6.73527H39.0028C38.7748 6.73527 38.5468 6.81946 38.4043 7.0159C38.2333 7.18429 38.1478 7.40879 38.1763 7.6333V28.6249C38.1763 28.8494 38.2618 29.0739 38.4043 29.2423C38.5753 29.4107 38.7748 29.4949 39.0028 29.4949H42.2517C42.4797 29.4949 42.6792 29.4107 42.8502 29.2423C43.0212 29.102 43.1352 28.8775 43.1067 28.6249V21.4406C43.5627 21.9457 44.1612 22.3106 44.8167 22.5351C45.6716 22.8438 46.5551 23.0122 47.4671 23.0122C48.4931 23.0122 49.5191 22.8157 50.4595 22.4228C51.4 22.0299 52.255 21.4687 52.9675 20.739C53.7085 19.9813 54.2785 19.0833 54.6775 18.101C55.1334 17.0065 55.3329 15.8279 55.3044 14.6492C55.3329 13.4705 55.1049 12.2919 54.6775 11.1693C54.25 10.2432 53.68 9.34519 52.939 8.58747ZM50.0321 16.1927C49.8611 16.6417 49.6046 17.0346 49.2626 17.3994C48.6071 18.101 47.6666 18.4939 46.6976 18.4939C46.2131 18.4939 45.7286 18.4097 45.2727 18.1852C44.8452 17.9888 44.4462 17.7362 44.1042 17.3994C43.7622 17.0627 43.5057 16.6417 43.3347 16.1927C42.9642 15.2385 42.9642 14.2002 43.3347 13.246C43.5057 12.797 43.7907 12.4041 44.1042 12.0674C44.4462 11.7306 44.8452 11.45 45.2727 11.2535C45.7286 11.0571 46.2131 10.9448 46.6976 10.9448C47.2106 10.9448 47.6666 11.029 48.1511 11.2535C48.5786 11.45 48.9776 11.7025 49.2911 12.0393C49.6331 12.3761 49.8611 12.7689 50.0606 13.218C50.4025 14.2002 50.374 15.2385 50.0321 16.1927ZM72.7176 6.76333H69.4971C69.2692 6.76333 69.0412 6.84752 68.8987 7.0159C68.7277 7.18429 68.6422 7.40879 68.6422 7.66137V8.05426C68.2432 7.57717 67.7302 7.21235 67.1887 6.95978C66.3052 6.53882 65.3362 6.34238 64.3673 6.34238C62.2868 6.34238 60.3203 7.15622 58.8384 8.58747C58.0689 9.34519 57.4704 10.2432 57.0714 11.2254C56.6154 12.3199 56.3874 13.4986 56.4159 14.7053C56.3874 15.884 56.6154 17.0627 57.0714 18.1852C57.4989 19.1674 58.0689 20.0655 58.8384 20.8232C60.2918 22.2825 62.2868 23.0963 64.3388 23.0963C65.3077 23.1244 66.2767 22.8999 67.1602 22.479C67.7017 22.1983 68.2432 21.8335 68.6422 21.3845V21.8054C68.6422 22.0299 68.7277 22.2544 68.8987 22.4228C69.0697 22.5631 69.2692 22.6754 69.4971 22.6754H72.7176C72.9456 22.6754 73.1736 22.5912 73.3161 22.4228C73.4871 22.2544 73.5726 22.0299 73.5726 21.8054V7.68943C73.5726 7.46492 73.4871 7.24041 73.3446 7.07203C73.1736 6.87558 72.9456 6.76333 72.7176 6.76333ZM68.3572 16.1927C68.1862 16.6417 67.9297 17.0346 67.5877 17.3994C67.2457 17.7362 66.8752 18.0168 66.4477 18.2133C65.5357 18.6342 64.4813 18.6342 63.5693 18.2133C63.1418 18.0168 62.7428 17.7362 62.4008 17.3994C62.0588 17.0627 61.8023 16.6417 61.6313 16.1927C61.2893 15.2385 61.2893 14.2002 61.6313 13.246C61.8023 12.797 62.0588 12.4322 62.4008 12.0674C62.7428 11.7306 63.1133 11.45 63.5693 11.2535C64.4813 10.8326 65.5357 10.8326 66.4192 11.2535C66.8467 11.45 67.2457 11.7025 67.5592 12.0393C67.8727 12.3761 68.1292 12.7689 68.3287 13.218C68.7277 14.2002 68.7277 15.2385 68.3572 16.1927ZM104.808 14.2844C104.352 13.8915 103.81 13.5547 103.24 13.3302C102.642 13.0776 101.986 12.9093 101.359 12.7689L98.9085 12.2919C98.2816 12.1796 97.8256 12.0112 97.5976 11.8148C97.3981 11.6745 97.2556 11.45 97.2556 11.1974C97.2556 10.9448 97.3981 10.7203 97.7116 10.5239C98.139 10.2993 98.595 10.1871 99.0795 10.2152C99.7065 10.2152 100.334 10.3555 100.903 10.58C101.473 10.8326 102.015 11.0851 102.528 11.4219C103.24 11.8709 103.867 11.7867 104.295 11.2816L105.463 9.96258C105.691 9.73807 105.805 9.45744 105.834 9.14874C105.805 8.81198 105.634 8.53134 105.378 8.30683C104.893 7.88588 104.095 7.43686 103.041 6.98784C101.986 6.53882 100.647 6.31431 99.0795 6.31431C98.1105 6.28625 97.1701 6.42657 96.2581 6.7072C95.4886 6.95977 94.7476 7.3246 94.0921 7.80169C93.4936 8.2507 93.0377 8.81198 92.6957 9.4855C92.3822 10.131 92.2112 10.8326 92.2112 11.5341C92.2112 12.8531 92.6102 13.9196 93.4081 14.7053C94.2061 15.4911 95.2606 16.0243 96.5716 16.2769L99.1365 16.8382C99.678 16.9224 100.248 17.0907 100.761 17.3433C101.046 17.4556 101.217 17.7362 101.217 18.0449C101.217 18.3255 101.074 18.5781 100.761 18.8026C100.448 19.0271 99.9345 19.1674 99.2505 19.1674C98.5665 19.1674 97.8541 19.0271 97.2271 18.7184C96.6286 18.4378 96.0871 18.073 95.5741 17.652C95.3461 17.4836 95.1181 17.3433 94.8331 17.2311C94.5481 17.1469 94.1776 17.2311 93.8071 17.5398L92.4107 18.5781C92.0117 18.8588 91.8122 19.3358 91.9262 19.7848C92.0117 20.2619 92.3822 20.711 93.0947 21.2442C94.8616 22.4228 96.9706 23.0402 99.108 22.9841C100.106 22.9841 101.103 22.8718 102.043 22.5912C102.87 22.3386 103.639 21.9738 104.323 21.4687C104.95 21.0196 105.463 20.4303 105.805 19.7287C106.147 19.0552 106.318 18.3255 106.318 17.5678C106.347 16.8943 106.204 16.2208 105.919 15.6034C105.634 15.1544 105.264 14.6773 104.808 14.2844ZM118.887 18.1291C118.744 17.8765 118.488 17.7081 118.174 17.652C117.889 17.652 117.576 17.7362 117.348 17.9046C116.949 18.1572 116.493 18.2975 116.037 18.3255C115.894 18.3255 115.723 18.2975 115.581 18.2694C115.41 18.2414 115.267 18.1572 115.153 18.0449C115.011 17.9046 114.897 17.7362 114.811 17.5678C114.697 17.2872 114.64 17.0066 114.669 16.7259V10.9729H118.83C119.086 10.9729 119.314 10.8606 119.485 10.6922C119.656 10.5239 119.77 10.3274 119.77 10.0748V7.6333C119.77 7.38073 119.685 7.15622 119.485 7.0159C119.314 6.84752 119.086 6.76333 118.858 6.76333H114.669V2.83443C114.669 2.60992 114.583 2.35734 114.412 2.21702C114.241 2.07671 114.042 1.99252 113.814 1.96445H110.565C110.337 1.96445 110.109 2.04864 109.938 2.21702C109.767 2.38541 109.653 2.60992 109.653 2.83443V6.76333H107.8C107.572 6.76333 107.344 6.84752 107.173 7.04397C107.031 7.21235 106.945 7.43686 106.945 7.66137V10.1029C106.945 10.3274 107.031 10.5519 107.173 10.7203C107.316 10.9167 107.544 11.0009 107.8 11.0009H109.653V17.8485C109.624 18.6623 109.795 19.4761 110.137 20.2058C110.451 20.8232 110.85 21.3564 111.391 21.8054C111.904 22.2264 112.503 22.5351 113.158 22.7035C113.814 22.8999 114.498 23.0122 115.182 23.0122C116.065 23.0122 116.977 22.8718 117.832 22.5912C118.63 22.3386 119.343 21.8896 119.913 21.3003C120.283 20.9355 120.312 20.3461 120.027 19.9252L118.887 18.1291ZM136.499 6.76333H133.279C133.051 6.76333 132.851 6.84752 132.68 7.0159C132.509 7.18429 132.424 7.40879 132.424 7.66137V8.05426C132.025 7.57717 131.54 7.21235 130.97 6.95978C130.087 6.53882 129.118 6.34238 128.149 6.34238C126.068 6.34238 124.102 7.15622 122.62 8.58747C121.851 9.34519 121.252 10.2432 120.853 11.2254C120.397 12.3199 120.169 13.4986 120.198 14.6773C120.169 15.8559 120.397 17.0346 120.853 18.1572C121.252 19.1394 121.879 20.0374 122.62 20.7951C124.074 22.2544 126.04 23.0683 128.12 23.0683C129.089 23.0964 130.058 22.8718 130.942 22.479C131.512 22.1983 132.025 21.8335 132.424 21.3845V21.8054C132.424 22.0299 132.509 22.2544 132.68 22.3948C132.851 22.5631 133.051 22.6473 133.279 22.6473H136.499C136.984 22.6473 137.354 22.2825 137.354 21.8054V7.68943C137.354 7.46492 137.269 7.24041 137.126 7.07203C136.984 6.87558 136.756 6.76333 136.499 6.76333ZM132.167 16.1927C131.996 16.6417 131.74 17.0346 131.398 17.3994C131.056 17.7362 130.685 18.0168 130.258 18.2133C129.802 18.4097 129.317 18.522 128.804 18.522C128.291 18.522 127.835 18.4097 127.379 18.2133C126.952 18.0168 126.553 17.7362 126.211 17.3994C125.869 17.0627 125.612 16.6417 125.47 16.1927C125.128 15.2385 125.128 14.2002 125.47 13.246C125.641 12.797 125.897 12.4041 126.211 12.0674C126.553 11.7306 126.952 11.45 127.379 11.2535C127.835 11.0571 128.32 10.9448 128.804 10.9448C129.289 10.9448 129.773 11.029 130.258 11.2535C130.685 11.45 131.056 11.7025 131.398 12.0393C131.74 12.3761 131.996 12.7689 132.167 13.218C132.538 14.1721 132.538 15.2385 132.167 16.1927ZM154.169 17.9046L152.316 16.5014C151.974 16.2208 151.632 16.1366 151.347 16.2488C151.091 16.3611 150.863 16.5295 150.663 16.7259C150.264 17.203 149.78 17.624 149.267 17.9888C148.697 18.2975 148.099 18.4659 147.472 18.4097C146.731 18.4097 146.047 18.2133 145.448 17.7923C144.85 17.3714 144.394 16.8101 144.166 16.1085C143.995 15.6314 143.909 15.1543 143.909 14.6773C143.909 14.1721 143.995 13.695 144.166 13.1899C144.337 12.7409 144.565 12.348 144.907 12.0112C145.249 11.6745 145.619 11.3938 146.047 11.2254C146.503 11.029 146.987 10.9167 147.5 10.9167C148.127 10.8887 148.754 11.0571 149.295 11.3658C149.837 11.7025 150.293 12.1235 150.692 12.6286C150.863 12.8251 151.091 12.9935 151.347 13.1057C151.632 13.218 151.974 13.1338 152.316 12.8531L154.169 11.478C154.397 11.3377 154.568 11.1132 154.653 10.8606C154.767 10.58 154.739 10.2713 154.568 10.0187C153.855 8.92423 152.886 8.02619 151.718 7.38073C150.492 6.7072 149.039 6.34238 147.415 6.34238C146.275 6.34238 145.135 6.56688 144.052 6.98784C143.026 7.40879 142.114 7.99813 141.344 8.75585C140.575 9.51356 139.948 10.4116 139.52 11.4219C138.637 13.5267 138.637 15.884 139.52 17.9888C139.948 18.971 140.546 19.8971 141.344 20.6268C142.969 22.1983 145.135 23.0402 147.415 23.0402C149.039 23.0402 150.492 22.6754 151.718 22.0019C152.886 21.3564 153.884 20.4584 154.596 19.3358C154.739 19.0833 154.767 18.7746 154.682 18.522C154.568 18.2975 154.397 18.073 154.169 17.9046ZM171.326 21.188L166.224 13.8354L170.585 8.16651C170.784 7.91394 170.87 7.54911 170.756 7.24041C170.67 7.0159 170.471 6.79139 169.929 6.79139H166.481C166.281 6.79139 166.082 6.84752 165.911 6.93171C165.683 7.04397 165.512 7.21235 165.398 7.40879L161.921 12.2077H161.094V0.869974C161.094 0.645465 161.009 0.420952 160.838 0.252571C160.667 0.0841891 160.467 0 160.239 0H157.019C156.791 0 156.563 0.0841891 156.392 0.252571C156.221 0.420952 156.135 0.617401 156.135 0.869974V21.7774C156.135 22.0299 156.221 22.2264 156.392 22.3948C156.563 22.5631 156.791 22.6473 157.019 22.6473H160.239C160.467 22.6473 160.695 22.5631 160.838 22.3948C161.009 22.2264 161.094 22.0019 161.094 21.7774V16.2488H162.006L165.797 21.9738C166.025 22.3948 166.452 22.6473 166.908 22.6473H170.528C171.069 22.6473 171.297 22.3948 171.411 22.1703C171.554 21.8335 171.525 21.4687 171.326 21.188ZM91.0142 6.76333H87.3948C87.1098 6.76333 86.8533 6.84752 86.6538 7.04397C86.4828 7.21235 86.3688 7.40879 86.3118 7.6333L83.6329 17.3994H82.9774L80.1274 7.6333C80.0704 7.43686 79.9849 7.24041 79.8424 7.04397C79.6714 6.84752 79.4434 6.73527 79.1869 6.73527H75.5105C75.026 6.73527 74.741 6.87558 74.5985 7.21235C74.513 7.49298 74.513 7.80169 74.5985 8.08232L79.1584 21.8335C79.2439 22.0299 79.3294 22.2544 79.5004 22.3948C79.6714 22.5631 79.9279 22.6473 80.1844 22.6473H82.1224L81.9514 23.0963L81.5239 24.3592C81.3814 24.7521 81.1534 25.0889 80.8114 25.3414C80.4979 25.5659 80.1274 25.7063 79.7284 25.6782C79.3864 25.6782 79.0729 25.594 78.7595 25.4818C78.446 25.3414 78.161 25.1731 77.9045 24.9766C77.6765 24.8082 77.3915 24.724 77.078 24.724H77.0495C76.7075 24.7521 76.394 24.9205 76.223 25.2292L75.083 26.8849C74.627 27.6146 74.8835 28.0636 75.1685 28.3162C75.7955 28.8775 76.508 29.2984 77.306 29.551C78.1895 29.8597 79.1014 30 80.0134 30C81.6664 30 83.0344 29.551 84.0888 28.681C85.1718 27.7269 85.9983 26.492 86.3973 25.0889L91.6982 8.08232C91.8122 7.77362 91.8407 7.46492 91.7267 7.18429C91.6982 6.98784 91.4987 6.76333 91.0142 6.76333Z" fill="#011B33"/>
</svg>
