<svg width="31" height="24" viewBox="0 0 31 24" fill="none" xmlns="http://www.w3.org/2000/svg">
<g clip-path="url(#clip0_2137_86)">
<path d="M5.63566 23.8807V22.2923C5.63566 21.6832 5.26341 21.2862 4.62537 21.2862C4.30641 21.2862 3.96081 21.3921 3.72153 21.7363C3.53553 21.445 3.26973 21.2862 2.87096 21.2862C2.60504 21.2862 2.33936 21.3656 2.1266 21.6568V21.3391H1.56836V23.8807H2.1266V22.4775C2.1266 22.0275 2.36588 21.8156 2.73812 21.8156C3.11012 21.8156 3.29637 22.054 3.29637 22.4775V23.8807H3.85461V22.4775C3.85461 22.0275 4.12029 21.8156 4.46589 21.8156C4.83813 21.8156 5.02413 22.054 5.02413 22.4775V23.8807H5.63566ZM13.9028 21.3391H12.9991V20.5714H12.4409V21.3391H11.9358V21.8421H12.4408V23.0071C12.4408 23.5896 12.68 23.9337 13.3181 23.9337C13.5574 23.9337 13.823 23.8543 14.0093 23.7484L13.8497 23.2718C13.6902 23.3777 13.5042 23.4042 13.3712 23.4042C13.1054 23.4042 12.9991 23.2454 12.9991 22.9805V21.8421H13.9028V21.3391ZM18.6347 21.2861C18.3157 21.2861 18.1031 21.445 17.9701 21.6568V21.3391H17.4119V23.8807H17.9701V22.4511C17.9701 22.0275 18.1561 21.7892 18.5017 21.7892C18.6081 21.7892 18.741 21.8158 18.8473 21.8422L19.0068 21.3127C18.9005 21.2862 18.741 21.2862 18.6347 21.2862V21.2861ZM11.4839 21.5509C11.218 21.3656 10.8458 21.2862 10.4471 21.2862C9.80915 21.2862 9.38387 21.6039 9.38387 22.1069C9.38387 22.5306 9.70283 22.7688 10.2611 22.8482L10.5269 22.8748C10.8193 22.9276 10.9788 23.0071 10.9788 23.1395C10.9788 23.3247 10.7662 23.4572 10.3939 23.4572C10.0218 23.4572 9.72935 23.3247 9.54323 23.1924L9.27743 23.616C9.56987 23.8278 9.96863 23.9337 10.3673 23.9337C11.1116 23.9337 11.537 23.5896 11.537 23.113C11.537 22.6629 11.1914 22.4246 10.6597 22.3452L10.3939 22.3187C10.1546 22.2921 9.96863 22.2393 9.96863 22.0805C9.96863 21.8951 10.1546 21.7892 10.4471 21.7892C10.7662 21.7892 11.0851 21.9215 11.2446 22.001L11.4839 21.5509ZM26.3173 21.2862C25.9982 21.2862 25.7855 21.445 25.6526 21.6568V21.3391H25.0943V23.8807H25.6526V22.4511C25.6526 22.0275 25.8387 21.7892 26.1842 21.7892C26.2906 21.7892 26.4236 21.8158 26.5299 21.8422L26.6894 21.3127C26.5831 21.2862 26.4236 21.2862 26.3173 21.2862ZM19.1929 22.6099C19.1929 23.3777 19.7246 23.9337 20.5487 23.9337C20.9208 23.9337 21.1866 23.8543 21.4524 23.6425L21.1866 23.1924C20.974 23.3513 20.7614 23.4306 20.5221 23.4306C20.0702 23.4306 19.7512 23.113 19.7512 22.6099C19.7512 22.1334 20.0702 21.8156 20.5221 21.7892C20.7614 21.7892 20.974 21.8686 21.1866 22.0275L21.4524 21.5775C21.1866 21.3656 20.9208 21.2862 20.5487 21.2862C19.7246 21.2862 19.1929 21.8422 19.1929 22.6099ZM24.3501 22.6099V21.3391H23.7918V21.6568C23.6057 21.4186 23.3399 21.2862 22.9943 21.2862C22.2766 21.2862 21.7184 21.8422 21.7184 22.6099C21.7184 23.3777 22.2766 23.9337 22.9943 23.9337C23.3664 23.9337 23.6324 23.8014 23.7918 23.5631V23.8807H24.3501V22.6099ZM22.3031 22.6099C22.3031 22.1598 22.5956 21.7892 23.074 21.7892C23.5259 21.7892 23.845 22.1334 23.845 22.6099C23.845 23.06 23.5259 23.4306 23.074 23.4306C22.5956 23.4041 22.3031 23.06 22.3031 22.6099ZM15.6309 21.2862C14.8865 21.2862 14.3548 21.8156 14.3548 22.6099C14.3548 23.4042 14.8864 23.9337 15.6574 23.9337C16.0295 23.9337 16.4017 23.8278 16.6942 23.5896L16.4283 23.1924C16.2156 23.3513 15.9498 23.4572 15.684 23.4572C15.3384 23.4572 14.9928 23.2983 14.913 22.8481H16.8005V22.6365C16.8271 21.8156 16.3486 21.2862 15.6307 21.2862H15.6309ZM15.6309 21.7627C15.9763 21.7627 16.2157 21.9746 16.2688 22.3717H14.9397C14.9928 22.0275 15.2321 21.7627 15.6309 21.7627ZM29.4806 22.6099V20.3331H28.9223V21.6568C28.7362 21.4186 28.4704 21.2862 28.1248 21.2862C27.4071 21.2862 26.8489 21.8422 26.8489 22.6099C26.8489 23.3777 27.4071 23.9337 28.1248 23.9337C28.4971 23.9337 28.7629 23.8014 28.9223 23.5631V23.8807H29.4806V22.6099ZM27.4337 22.6099C27.4337 22.1598 27.7261 21.7892 28.2046 21.7892C28.6565 21.7892 28.9755 22.1334 28.9755 22.6099C28.9755 23.06 28.6565 23.4306 28.2046 23.4306C27.7261 23.4041 27.4337 23.06 27.4337 22.6099ZM8.77235 22.6099V21.3391H8.21411V21.6568C8.02798 21.4186 7.76218 21.2862 7.41658 21.2862C6.69886 21.2862 6.14062 21.8422 6.14062 22.6099C6.14062 23.3777 6.69886 23.9337 7.41658 23.9337C7.78882 23.9337 8.05463 23.8014 8.21411 23.5631V23.8807H8.77235V22.6099ZM6.69886 22.6099C6.69886 22.1598 6.9913 21.7892 7.46974 21.7892C7.92166 21.7892 8.24075 22.1334 8.24075 22.6099C8.24075 23.06 7.92166 23.4306 7.46974 23.4306C6.9913 23.4041 6.69886 23.06 6.69886 22.6099Z" fill="black"/>
<path d="M11.2979 2.03857H19.6715V17.0236H11.2979V2.03857Z" fill="#FF5F00"/>
<path d="M11.8295 9.53113C11.8295 6.48651 13.265 3.78597 15.4713 2.03855C13.8499 0.767759 11.803 0 9.57004 0C4.27982 0 0 4.26247 0 9.53113C0 14.7997 4.27982 19.0623 9.56992 19.0623C11.8029 19.0623 13.8497 18.2945 15.4713 17.0236C13.265 15.3027 11.8295 12.5758 11.8295 9.53113Z" fill="#EB001B"/>
<path d="M30.9693 9.53113C30.9693 14.7997 26.6895 19.0623 21.3994 19.0623C19.1665 19.0623 17.1196 18.2945 15.498 17.0236C17.731 15.2763 19.1399 12.5758 19.1399 9.53113C19.1399 6.48651 17.7044 3.78597 15.498 2.03855C17.1195 0.767759 19.1665 0 21.3994 0C26.6895 0 30.9695 4.289 30.9695 9.53113H30.9693Z" fill="#F79E1B"/>
</g>
<defs>
<clipPath id="clip0_2137_86">
<rect width="31" height="24" fill="white"/>
</clipPath>
</defs>
</svg>
